HIERARCHY
ROOT hip
{
	OFFSET 0.000000 0.000000 0.000000
	CHANNELS 6 Xposition Yposition Zposition Xrotation Zrotation Yrotation 
	JOINT abdomen
	{
		OFFSET 0.000000 3.422050 0.000000
		CHANNELS 3 Xrotation Zrotation Yrotation 
		JOINT chest
		{
			OFFSET 0.000000 8.486693 -0.684411
			CHANNELS 3 Xrotation Zrotation Yrotation 
			JOINT neck
			{
				OFFSET 0.000000 10.266162 -0.273764
				CHANNELS 3 Xrotation Zrotation Yrotation 
				JOINT head
				{
					OFFSET 0.000000 3.148285 0.000000
					CHANNELS 3 Xrotation Zrotation Yrotation 
					End Site
					{
						OFFSET 0.000000 3.148289 0.000000
					}
				}
			}
			JOINT lCollar
			{
				OFFSET 3.422053 6.707223 -0.821293
				CHANNELS 3 Yrotation Zrotation Xrotation 
				JOINT lShldr
				{
					OFFSET 3.285171 0.000000 0.000000
					CHANNELS 3 Zrotation Yrotation Xrotation 
					JOINT lForeArm
					{
						OFFSET 10.129278 0.000000 0.000000
						CHANNELS 3 Yrotation Zrotation Xrotation 
						JOINT lHand
						{
							OFFSET 8.486692 0.000000 0.000000
							CHANNELS 3 Zrotation Yrotation Xrotation 
							End Site
							{
								OFFSET 4.106464 0.000000 0.000000
							}
						}
					}
				}
			}
			JOINT rCollar
			{
				OFFSET -3.558935 6.707223 -0.821293
				CHANNELS 3 Yrotation Zrotation Xrotation 
				JOINT rShldr
				{
					OFFSET -3.148289 0.000000 0.000000
					CHANNELS 3 Zrotation Yrotation Xrotation 
					JOINT rForeArm
					{
						OFFSET -10.266159 0.000000 0.000000
						CHANNELS 3 Yrotation Zrotation Xrotation 
						JOINT rHand
						{
							OFFSET -8.349810 0.000000 0.000000
							CHANNELS 3 Zrotation Yrotation Xrotation 
							End Site
							{
								OFFSET -4.106464 0.000000 0.000000
							}
						}
					}
				}
			}
		}
	}
	JOINT lThigh
	{
		OFFSET 5.338403 -1.642589 1.368821
		CHANNELS 3 Xrotation Zrotation Yrotation 
		JOINT lShin
		{
			OFFSET -2.053232 -20.121670 0.000000
			CHANNELS 3 Xrotation Zrotation Yrotation 
			JOINT lFoot
			{
				OFFSET 0.000000 -19.300380 -1.231939
				CHANNELS 3 Xrotation Yrotation Zrotation 
				End Site
				{
					OFFSET 0.000000 -2.463878 4.653993
				}
			}
		}
	}
	JOINT rThigh
	{
		OFFSET -5.338403 -1.642589 1.368821
		CHANNELS 3 Xrotation Zrotation Yrotation 
		JOINT rShin
		{
			OFFSET 2.053232 -20.121670 0.000000
			CHANNELS 3 Xrotation Zrotation Yrotation 
			JOINT rFoot
			{
				OFFSET 0.000000 -19.300380 -1.231939
				CHANNELS 3 Xrotation Yrotation Zrotation 
				End Site
				{
					OFFSET 0.000000 -2.463878 4.653993
				}
			}
		}
	}
}
MOTION
Frames: 8
Frame Time: 0.033315
0.000000 43.528500 0.000000 0.000000 0.000000 0.000000 0.000000 0.000000 0.000000 0.000000 0.000000 0.000000 0.000000 0.000000 0.000000 0.000000 0.000000 0.000000 0.000000 0.000000 0.000000 0.000000 0.000000 0.000000 0.000000 0.000000 0.000000 0.000000 0.000000 0.000000 0.000000 0.000000 0.000000 0.000000 0.000000 0.000000 0.000000 0.000000 0.000000 0.000000 0.000000 0.000000 0.000000 0.000000 0.000000 0.000000 0.000000 0.000000 0.000000 0.000000 0.000000 0.000000 0.000000 0.000000 0.000000 0.000000 0.000000 0.000000 0.000000 0.000000 
9.999443 7.997272 0.000000 -90.001862 -0.260951 179.739059 0.000000 0.000000 0.000000 -0.082183 0.000000 0.000000 0.000000 1.998697 0.000000 0.000000 19.998167 0.000000 9.999330 -26.001677 -0.000252 -29.002144 -28.003601 -30.000866 -118.001846 0.000000 0.000000 -10.002190 0.000000 0.000000 0.000000 0.000000 0.000000 20.001181 53.996368 -59.999634 120.993744 0.000000 0.000000 0.998433 0.000000 0.000000 -31.000374 23.998268 -0.000065 40.996567 0.000000 0.000000 63.997410 -0.000001 0.000001 -36.000153 -24.000933 -0.000587 47.999062 0.000000 0.000000 37.997963 0.000000 0.000000 
9.999443 7.997272 0.000000 -90.001862 -0.260951 179.739059 0.000000 0.000000 0.000000 -0.082183 0.000000 0.000000 0.000000 1.998697 0.000000 0.000000 19.180641 0.000000 9.999330 -26.001677 -0.000252 -28.502779 -28.108845 -30.347176 -118.001846 0.000000 0.000000 -10.002190 0.000000 0.000000 0.000000 0.000000 0.000000 21.116312 53.724621 -58.711796 120.993744 0.000000 0.000000 0.998433 0.000000 0.000000 -31.000374 23.998268 -0.000065 40.996567 0.000000 0.000000 63.997410 -0.000001 0.000001 -36.000153 -24.000933 -0.000587 47.999062 0.000000 0.000000 37.997963 0.000000 0.000000 
9.999443 7.997272 0.000000 -90.001862 -0.260951 179.739059 0.000000 0.000000 0.000000 -0.082183 0.000000 0.000000 0.000000 1.998697 0.000000 0.000000 18.361137 0.000000 9.999330 -26.001677 -0.000252 -28.001947 -28.211464 -30.695024 -118.001846 0.000000 0.000000 -10.002190 0.000000 0.000000 0.000000 0.000000 0.000000 22.215290 53.437801 -57.439556 120.993744 0.000000 0.000000 0.998433 0.000000 0.000000 -31.000374 23.998270 -0.000066 40.996567 0.000000 0.000000 63.997410 -0.000001 0.000001 -36.000153 -24.000933 -0.000588 47.999062 0.000000 0.000000 37.997963 0.000000 0.000000 
9.999443 7.997272 0.000000 -90.001877 -0.260951 179.739059 0.000000 0.000000 0.000000 -0.082183 0.000000 0.000000 0.000000 1.998697 0.000000 0.000000 17.539743 0.000000 9.999330 -26.001677 -0.000252 -27.499708 -28.311447 -31.044384 -118.001846 0.000000 0.000000 -10.002190 0.000000 0.000000 0.000000 0.000000 0.000000 23.297422 53.136234 -56.183640 120.993744 0.000000 0.000000 0.998433 0.000000 0.000000 -31.000374 23.998268 -0.000065 40.996567 0.000000 0.000000 63.997410 -0.000001 0.000001 -36.000153 -24.000933 -0.000587 47.999069 0.000000 0.000000 37.997967 0.000000 0.000000 
9.999443 7.997272 0.000000 -90.001862 -0.260951 179.739059 0.000000 0.000000 0.000000 -0.082183 0.000000 0.000000 0.000000 1.998697 0.000000 0.000000 16.716522 0.000000 9.999330 -26.001677 -0.000252 -26.996080 -28.408766 -31.395206 -118.001846 0.000000 0.000000 -10.002190 0.000000 0.000000 0.000000 0.000000 0.000000 24.362110 52.820198 -54.944592 120.993744 0.000000 0.000000 0.998433 0.000000 0.000000 -31.000374 23.998270 -0.000064 40.996571 0.000000 0.000000 63.997410 -0.000001 0.000001 -36.000153 -24.000935 -0.000587 47.999069 0.000000 0.000000 37.997963 0.000000 0.000000 
9.999443 7.997272 0.000000 -90.001862 -0.260951 179.739059 0.000000 0.000000 0.000000 -0.082183 0.000000 0.000000 0.000000 1.998697 0.000000 0.000000 15.891564 0.000000 9.999331 -26.001678 -0.000252 -26.491121 -28.503401 -31.747454 -118.001846 0.000000 0.000000 -10.002190 0.000000 0.000000 0.000000 0.000000 0.000000 25.408821 52.490059 -53.722977 120.993744 0.000000 0.000000 0.998433 0.000000 0.000000 -31.000374 23.998270 -0.000065 40.996567 0.000000 0.000000 63.997410 -0.000001 0.000001 -36.000153 -24.000933 -0.000587 47.999065 0.000000 0.000000 37.997963 0.000000 0.000000 
9.999443 7.997272 0.000000 -90.001862 -0.260951 179.739059 0.000000 0.000000 0.000000 -0.082183 0.000000 0.000000 0.000000 1.998697 0.000000 0.000000 15.064940 0.000000 9.999331 -26.001680 -0.000252 -25.984873 -28.595345 -32.101093 -118.001846 0.000000 0.000000 -10.002190 0.000000 0.000000 0.000000 0.000000 0.000000 26.437080 52.146164 -52.519268 120.993744 0.000000 0.000000 0.998433 0.000000 0.000000 -31.000374 23.998272 -0.000065 40.996567 0.000000 0.000000 63.997410 -0.000001 0.000001 -36.000153 -24.000937 -0.000587 47.999065 0.000000 0.000000 37.997963 0.000000 0.000000 
